<?xml version="1.0" encoding="utf-8"?>
<!-- Generator: Adobe Illustrator 27.2.0, SVG Export Plug-In . SVG Version: 6.00 Build 0)  -->
<svg version="1.1" id="Layer_1" xmlns="http://www.w3.org/2000/svg" xmlns:xlink="http://www.w3.org/1999/xlink" x="0px" y="0px"
	 viewBox="0 0 425.2 425.2" style="enable-background:new 0 0 425.2 425.2;" xml:space="preserve">
<style type="text/css">
	.st0{display:none;}
	.st1{display:inline;}
	.st2{fill:#B28F00;}
	.st3{fill:#7F372F;}
	.st4{display:inline;fill:#4B4495;}
</style>
<g>
	<path d="M141.6,252.4c10.9,0,15.8,7.3,15.8,15.6c0,8.3-4.7,16.1-15.8,16.1c-4,0-9,0-13,0v-31.7H141.6z M135.6,277.6h6
		c6.9,0,8.8-5.1,8.8-9.6c0-4.6-2.2-9.1-8.8-9.1h-6V277.6z"/>
	<path d="M186.8,284.1h-24.1c0-10.5,0-21.1,0-31.7h23.5v6.5h-16.6v6.1h15.6v6.2h-15.6v6.4h17.2V284.1z"/>
	<path d="M211.1,260.1c-1.8-1.9-4.8-2.7-7.3-2.7c-3.1,0-5.7,1.3-5.7,3.5c0,2.9,2.8,3.4,6.8,3.8c6.2,0.5,12.2,2.9,12.2,10.3
		c0,7.1-6.5,10.1-13.4,10.2c-5.5,0-11.2-2.1-13.8-6.5l4.2-4.4c2.4,3.1,6.5,4.5,9.7,4.5c3.8,0,6.3-1.5,6.3-3.8c0-2.7-2.1-3.9-6.4-4.3
		c-6.7-0.6-12.7-2.3-12.6-9.8c0-6.3,6-9.6,12.5-9.6c4.9,0,8.6,1.1,11.8,4.9L211.1,260.1z"/>
	<path d="M222,284.1v-31.7h7v31.7H222z"/>
	<path d="M258.6,260.8c-1.9-1.9-4.9-2.8-7.4-2.8c-6,0-10,3.4-10,10.4c0,4.5,2.5,10.2,10,10.2c2.2,0,4.3-0.4,6.7-2.2v-5.1h-7.6v-5.9
		H264v13.8c-2.7,3.9-7.1,5.9-12.9,5.9c-12.2,0-16.8-8.5-16.8-16.7c0-8.9,5.2-16.8,16.9-16.8c4.3,0,8.2,1.2,11.8,4.9L258.6,260.8z"/>
	<path d="M291.7,273l-0.5-10v-10.6h7.1v31.7h-6.1l-15.7-20.3l0.3,10.4v9.9h-7.2v-31.7h6.1L291.7,273z"/>
</g>
<g>
	<path d="M302.5,115.5h-21.1h-0.1h-25.1l-38.1,49.3l-38.1-49.3c-8.4,0-17,0-25.4,0V129c-7.8-8.6-19.4-13.9-35.3-13.6
		c-9.8,0.2-19.4,0-29,0V141h29c12.8,0,19.3,8.6,19.3,18.3c0,9.7-6.4,18.1-19.3,18.1h-29V141c-8.5,0-17.1,0-25.9,0v95.3h25.9V202h29
		c15.8-0.2,27.5-5.2,35.3-13.4v47.6h25.4v-83.8l38.1,49.5l38.1-49.5v58.9h25.2v24.8c7.4,0,14.6,0.1,21.1,0.1c42.3,0,60-29.7,60-61.2
		S344,115.5,302.5,115.5z M302.5,211.4l-21.1-0.1v-71.5h21.1c25.2,0,33.5,17.4,33.5,34.8C335.9,192.1,328.7,211.4,302.5,211.4z"/>
	<rect x="231.3" y="211.4" width="24.8" height="24.8"/>
</g>
<g class="st0">
	<g class="st1">
		<path d="M141.6,252.4c10.9,0,15.8,7.3,15.8,15.6c0,8.3-4.7,16.1-15.8,16.1c-4,0-9,0-13,0v-31.7H141.6z M135.6,277.6h6
			c6.9,0,8.8-5.1,8.8-9.6s-2.2-9.1-8.8-9.1h-6V277.6z"/>
		<path d="M186.8,284.1h-24.1c0-10.5,0-21.1,0-31.7h23.5v6.5h-16.6v6.1h15.6v6.2h-15.6v6.4h17.2V284.1z"/>
		<path d="M211.1,260.1c-1.8-1.9-4.8-2.7-7.3-2.7c-3.1,0-5.7,1.3-5.7,3.5c0,2.9,2.8,3.4,6.8,3.8c6.2,0.5,12.2,2.9,12.2,10.3
			c0,7.1-6.5,10.1-13.4,10.2c-5.5,0-11.2-2.1-13.8-6.5l4.2-4.4c2.4,3.1,6.5,4.5,9.7,4.5c3.8,0,6.3-1.5,6.3-3.8
			c0-2.7-2.1-3.9-6.4-4.3c-6.7-0.6-12.7-2.3-12.6-9.8c0-6.3,6-9.6,12.5-9.6c4.9,0,8.6,1.1,11.8,4.9L211.1,260.1z"/>
		<path d="M222,284.1v-31.7h7v31.7H222z"/>
		<path d="M258.6,260.8c-1.9-1.9-4.9-2.8-7.4-2.8c-6,0-10,3.4-10,10.4c0,4.5,2.5,10.2,10,10.2c2.2,0,4.3-0.4,6.7-2.2v-5.1h-7.6v-5.9
			H264v13.8c-2.7,3.9-7.1,5.9-12.9,5.9c-12.2,0-16.8-8.5-16.8-16.7c0-8.9,5.2-16.8,16.9-16.8c4.3,0,8.2,1.2,11.8,4.9L258.6,260.8z"
			/>
		<path d="M291.7,273l-0.5-10v-10.6h7.1v31.7h-6.1l-15.7-20.3l0.3,10.4v9.9h-7.2v-31.7h6.1L291.7,273z"/>
	</g>
	<g class="st1">
		<path d="M90.3,177.4V141c-8.5,0-17.1,0-25.9,0v95.2h25.9v-34.2 M90.3,202.1h29c15.8-0.2,27.5-5.2,35.3-13.4v47.6h25.4v-83.8
			l38.1,49.5l38.1-49.5v58.9h25.2v24.8c7.4,0,14.6,0.1,21.1,0.1c42.3,0,60-29.7,60-61.2s-18.5-59.5-60-59.5h-21.1h-0.1h-25.1
			l-38.1,49.3l-38.1-49.3c-8.4,0-17,0-25.4,0V129c-7.8-8.6-19.4-13.9-35.3-13.6c-9.8,0.2-19.4,0-29,0V141h29
			c12.8,0,19.3,8.6,19.3,18.3c0,9.7-6.4,18.1-19.3,18.1h-29 M302.5,211.4l-21.1-0.1v-71.5h21.1c25.2,0,33.5,17.4,33.5,34.8
			C335.9,192.1,328.7,211.4,302.5,211.4z"/>
		<path class="st2" d="M90.3,177.4V141c-8.5,0-17.1,0-25.9,0v95.2h25.9V202V177.4z"/>
		<rect x="231.3" y="211.4" class="st3" width="24.8" height="24.8"/>
	</g>
	<g class="st1">
		<path class="st3" d="M302.5,115.5h-21.2v24.3h21.2c25.2,0,33.5,17.4,33.5,34.8c0,17.4-7.2,36.7-33.5,36.7l-21.1-0.1v24.8
			c7.4,0,14.6,0.1,21.1,0.1c42.3,0,60-29.7,60-61.2S344,115.5,302.5,115.5z"/>
	</g>
	<polygon class="st4" points="218.1,202 256.2,152.5 256.2,115.5 218.1,164.8 	"/>
</g>
</svg>
